<?xml version="1.0" encoding="UTF-8"?>
<!DOCTYPE svg PUBLIC "-//W3C//DTD SVG 1.1//EN" "http://www.w3.org/Graphics/SVG/1.1/DTD/svg11.dtd">
<svg width="258mm" height="169mm" viewBox="0 0 25800 16900" version="1.1" baseProfile="tiny" xmlns="http://www.w3.org/2000/svg" stroke-width="28.222" stroke-linejoin="round" xml:space="preserve">
 <path fill="rgb(255,255,255)" stroke="none" d="M 12911,16849 L 13,16849 13,13 25809,13 25809,16849 12911,16849 Z"/>
 <path fill="none" stroke="rgb(217,217,217)" stroke-width="26" stroke-linejoin="round" d="M 12911,16849 L 13,16849 13,13 25809,13 25809,16849 12911,16849 Z"/>
 <path fill="none" stroke="rgb(217,217,217)" stroke-width="26" stroke-linejoin="round" d="M 1264,2500 L 1264,14439"/>
 <path fill="none" stroke="rgb(217,217,217)" stroke-width="26" stroke-linejoin="round" d="M 3834,2500 L 3834,14439"/>
 <path fill="none" stroke="rgb(217,217,217)" stroke-width="26" stroke-linejoin="round" d="M 6404,2500 L 6404,14439"/>
 <path fill="none" stroke="rgb(217,217,217)" stroke-width="26" stroke-linejoin="round" d="M 8974,2500 L 8974,14439"/>
 <path fill="none" stroke="rgb(217,217,217)" stroke-width="26" stroke-linejoin="round" d="M 11544,2500 L 11544,14439"/>
 <path fill="none" stroke="rgb(217,217,217)" stroke-width="26" stroke-linejoin="round" d="M 14114,2500 L 14114,14439"/>
 <path fill="none" stroke="rgb(217,217,217)" stroke-width="26" stroke-linejoin="round" d="M 16684,2500 L 16684,14439"/>
 <path fill="none" stroke="rgb(217,217,217)" stroke-width="26" stroke-linejoin="round" d="M 19254,2500 L 19254,14439"/>
 <path fill="none" stroke="rgb(217,217,217)" stroke-width="26" stroke-linejoin="round" d="M 21824,2500 L 21824,14439"/>
 <path fill="none" stroke="rgb(217,217,217)" stroke-width="26" stroke-linejoin="round" d="M 24393,2500 L 24393,14439"/>
 <path fill="none" stroke="rgb(217,217,217)" stroke-width="26" stroke-linejoin="round" d="M 24393,14439 L 1264,14439"/>
 <path fill="none" stroke="rgb(217,217,217)" stroke-width="26" stroke-linejoin="round" d="M 24393,12449 L 1264,12449"/>
 <path fill="none" stroke="rgb(217,217,217)" stroke-width="26" stroke-linejoin="round" d="M 24393,10459 L 1264,10459"/>
 <path fill="none" stroke="rgb(217,217,217)" stroke-width="26" stroke-linejoin="round" d="M 24393,8469 L 1264,8469"/>
 <path fill="none" stroke="rgb(217,217,217)" stroke-width="26" stroke-linejoin="round" d="M 24393,6480 L 1264,6480"/>
 <path fill="none" stroke="rgb(217,217,217)" stroke-width="26" stroke-linejoin="round" d="M 24393,4490 L 1264,4490"/>
 <path fill="none" stroke="rgb(217,217,217)" stroke-width="26" stroke-linejoin="round" d="M 24393,2500 L 1264,2500"/>
 <path fill="none" stroke="rgb(191,191,191)" stroke-width="53" stroke-linejoin="round" d="M 1264,14439 L 24393,14439"/>
 <path fill="none" stroke="rgb(191,191,191)" stroke-width="26" stroke-linejoin="round" d="M 1264,14439 L 1264,2500"/>
 <path fill="none" stroke="rgb(255,66,14)" stroke-width="80" stroke-linejoin="round" d="M 1264,14439 L 1355,14436 1444,14433 1534,14430 1624,14427 1714,14423 1804,14419 1894,14414 1984,14409 2074,14402 2164,14395 2254,14386 2344,14376 2433,14365 2523,14352 2613,14338 2703,14322 2793,14304 2883,14285 2973,14263 3063,14239 3153,14213 3243,14185 3333,14156 3423,14125 3513,14093 3603,14059 3693,14027 3783,13992 3873,13958 3963,13924 4053,13890 4143,13856 4233,13824 4322,13792 4412,13762 4502,13734 4592,13708 4682,13683 4772,13661 4862,13642 4952,13626 5042,13612 5132,13601 5222,13593 5311,13586 5401,13582 5492,13580 5582,13579 5672,13580 5762,13582 5852,13586 5942,13590 6032,13596 6122,13602 6212,13608 6301,13615 6391,13622 6481,13629 6571,13636 6661,13642 6751,13648 6841,13653 6931,13657 7021,13660 7111,13660 7200,13659 7290,13655 7380,13648 7470,13639 7561,13626 7651,13609 7741,13589 7831,13564 7921,13534 8011,13500 8101,13460 8190,13416 8280,13365 8370,13308 8460,13245 8550,13175 8640,13098 8730,13017 8820,12932 8910,12843 9000,12752 9089,12658 9179,12564 9269,12469 9359,12375 9449,12283 9539,12192 9630,12106 9720,12023 9810,11944 9900,11871 9990,11805 10079,11746 10169,11695 10259,11652 10349,11619 10439,11595 10529,11579 10619,11570 10709,11567 10799,11570 10889,11576 10979,11587 11068,11599 11158,11614 11248,11629 11338,11644 11428,11658 11518,11670 11608,11679 11699,11685 11789,11686 11879,11681 11968,11670 12058,11652 12148,11626 12238,11593 12328,11553 12418,11507 12508,11455 12598,11398 12688,11336 12778,11272 12868,11204 12957,11134 13047,11063 13137,10990 13227,10919 13317,10846 13407,10775 13497,10706 13587,10639 13677,10575 13768,10514 13858,10459 13947,10407 14037,10361 14127,10319 14217,10283 14307,10249 14397,10219 14487,10193 14577,10170 14667,10150 14757,10133 14846,10119 14936,10106 15026,10096 15116,10088 15206,10081 15296,10075 15386,10071 15476,10067 15566,10064 15656,10061 15746,10058 15836,10055 15926,10053 16016,10050 16106,10048 16196,10046 16286,10044 16376,10043 16466,10042 16556,10041 16646,10041 16736,10041 16825,10041 16915,10042 17005,10044 17095,10046 17185,10049 17275,10052 17365,10056 17455,10061 17545,10066 17635,10072 17724,10079 17814,10085 17905,10092 17995,10098 18085,10104 18175,10109 18265,10114 18355,10117 18445,10120 18535,10121 18625,10121 18714,10119 18804,10115 18894,10109 18984,10101 19074,10090 19164,10077 19254,10061 19344,10042 19434,10020 19524,9996 19613,9968 19703,9939 19793,9906 19883,9872 19974,9835 20064,9796 20154,9756 20244,9713 20334,9670 20424,9624 20514,9576 20603,9527 20693,9477 20783,9425 20873,9373 20963,9319 21053,9265 21143,9210 21233,9154 21323,9097 21413,9041 21503,8983 21592,8925 21682,8866 21772,8807 21862,8747 21952,8687 22043,8626 22133,8565 22223,8504 22313,8442 22403,8382 22492,8320 22582,8258 22672,8195 22762,8133 22852,8071"/>
 <path fill="none" stroke="rgb(0,69,134)" stroke-width="80" stroke-linejoin="round" d="M 1264,14439 L 1355,14431 1444,14424 1534,14416 1624,14407 1714,14398 1804,14388 1894,14376 1984,14364 2074,14349 2164,14334 2254,14316 2344,14296 2433,14274 2523,14249 2613,14222 2703,14192 2793,14159 2883,14123 2973,14083 3063,14041 3153,13994 3243,13944 3333,13890 3423,13834 3513,13775 3603,13715 3693,13653 3783,13589 3873,13524 3963,13459 4053,13394 4143,13329 4233,13263 4322,13199 4412,13135 4502,13073 4592,13013 4682,12955 4772,12899 4862,12846 4952,12797 5042,12750 5132,12706 5222,12663 5311,12623 5401,12584 5492,12547 5582,12511 5672,12475 5762,12440 5852,12405 5942,12370 6032,12335 6122,12299 6212,12262 6301,12223 6391,12183 6481,12142 6571,12098 6661,12051 6751,12001 6841,11949 6931,11895 7021,11839 7111,11780 7200,11721 7290,11660 7380,11597 7470,11535 7561,11472 7651,11408 7741,11343 7831,11279 7921,11216 8011,11153 8101,11091 8190,11030 8280,10970 8370,10913 8460,10857 8550,10803 8640,10751 8730,10701 8820,10653 8910,10606 9000,10561 9089,10518 9179,10476 9269,10436 9359,10397 9449,10359 9539,10322 9630,10288 9720,10253 9810,10219 9900,10186 9990,10154 10079,10122 10169,10091 10259,10061 10349,10031 10439,10001 10529,9972 10619,9944 10709,9916 10799,9889 10889,9863 10979,9839 11068,9815 11158,9793 11248,9772 11338,9752 11428,9735 11518,9718 11608,9704 11699,9692 11789,9681 11879,9674 11968,9667 12058,9663 12148,9662 12238,9662 12328,9664 12418,9668 12508,9672 12598,9678 12688,9683 12778,9689 12868,9695 12957,9701 13047,9706 13137,9709 13227,9712 13317,9712 13407,9711 13497,9707 13587,9701 13677,9691 13768,9680 13858,9663 13947,9643 14037,9619 14127,9592 14217,9562 14307,9529 14397,9493 14487,9455 14577,9415 14667,9373 14757,9329 14846,9284 14936,9239 15026,9192 15116,9145 15206,9097 15296,9051 15386,9004 15476,8957 15566,8912 15656,8867 15746,8824 15836,8782 15926,8740 16016,8700 16106,8661 16196,8622 16286,8584 16376,8546 16466,8508 16556,8471 16646,8433 16736,8396 16825,8358 16915,8320 17005,8281 17095,8241 17185,8200 17275,8158 17365,8115 17455,8071 17545,8025 17635,7979 17724,7931 17814,7883 17905,7835 17995,7787 18085,7739 18175,7692 18265,7645 18355,7600 18445,7556 18535,7514 18625,7474 18714,7436 18804,7401 18894,7369 18984,7340 19074,7314 19164,7292 19254,7275 19344,7261 19434,7251 19524,7245 19613,7240 19703,7237 19793,7234 19883,7232 19974,7229 20064,7224 20154,7218 20244,7208 20334,7195 20424,7179 20514,7157 20603,7129 20693,7094 20783,7052 20873,7003 20963,6945 21053,6877 21143,6800 21233,6713 21323,6617 21413,6513 21503,6401 21592,6280 21682,6153 21772,6020 21862,5881 21952,5736 22043,5585 22133,5430 22223,5272 22313,5110 22403,4945 22492,4777 22582,4608 22672,4436 22762,4264 22852,4091"/>
 <text class="TextShape"><tspan class="TextParagraph" font-family="Calibri, sans-serif" font-size="634px" font-weight="400"><tspan class="TextPosition" x="550" y="15147"/><tspan class="TextPosition" x="550" y="15147"><tspan fill="rgb(89,89,89)" stroke="none">1-mrt</tspan></tspan></tspan></text>
 <text class="TextShape"><tspan class="TextParagraph" font-family="Calibri, sans-serif" font-size="634px" font-weight="400"><tspan class="TextPosition" x="2962" y="15147"/><tspan class="TextPosition" x="2962" y="15147"><tspan fill="rgb(89,89,89)" stroke="none">11-mrt</tspan></tspan></tspan></text>
 <text class="TextShape"><tspan class="TextParagraph" font-family="Calibri, sans-serif" font-size="634px" font-weight="400"><tspan class="TextPosition" x="5533" y="15147"/><tspan class="TextPosition" x="5533" y="15147"><tspan fill="rgb(89,89,89)" stroke="none">21-mrt</tspan></tspan></tspan></text>
 <text class="TextShape"><tspan class="TextParagraph" font-family="Calibri, sans-serif" font-size="634px" font-weight="400"><tspan class="TextPosition" x="8102" y="15147"/><tspan class="TextPosition" x="8102" y="15147"><tspan fill="rgb(89,89,89)" stroke="none">31-mrt</tspan></tspan></tspan></text>
 <text class="TextShape"><tspan class="TextParagraph" font-family="Calibri, sans-serif" font-size="634px" font-weight="400"><tspan class="TextPosition" x="10698" y="15147"/><tspan class="TextPosition" x="10698" y="15147"><tspan fill="rgb(89,89,89)" stroke="none">10-apr</tspan></tspan></tspan></text>
 <text class="TextShape"><tspan class="TextParagraph" font-family="Calibri, sans-serif" font-size="634px" font-weight="400"><tspan class="TextPosition" x="13269" y="15147"/><tspan class="TextPosition" x="13269" y="15147"><tspan fill="rgb(89,89,89)" stroke="none">20-apr</tspan></tspan></tspan></text>
 <text class="TextShape"><tspan class="TextParagraph" font-family="Calibri, sans-serif" font-size="634px" font-weight="400"><tspan class="TextPosition" x="15838" y="15147"/><tspan class="TextPosition" x="15838" y="15147"><tspan fill="rgb(89,89,89)" stroke="none">30-apr</tspan></tspan></tspan></text>
 <text class="TextShape"><tspan class="TextParagraph" font-family="Calibri, sans-serif" font-size="634px" font-weight="400"><tspan class="TextPosition" x="18355" y="15147"/><tspan class="TextPosition" x="18355" y="15147"><tspan fill="rgb(89,89,89)" stroke="none">10-mei</tspan></tspan></tspan></text>
 <text class="TextShape"><tspan class="TextParagraph" font-family="Calibri, sans-serif" font-size="634px" font-weight="400"><tspan class="TextPosition" x="20926" y="15147"/><tspan class="TextPosition" x="20926" y="15147"><tspan fill="rgb(89,89,89)" stroke="none">20-mei</tspan></tspan></tspan></text>
 <text class="TextShape"><tspan class="TextParagraph" font-family="Calibri, sans-serif" font-size="634px" font-weight="400"><tspan class="TextPosition" x="23495" y="15147"/><tspan class="TextPosition" x="23495" y="15147"><tspan fill="rgb(89,89,89)" stroke="none">30-mei</tspan></tspan></tspan></text>
 <text class="TextShape"><tspan class="TextParagraph" font-family="Calibri, sans-serif" font-size="634px" font-weight="400"><tspan class="TextPosition" x="846" y="14664"/><tspan class="TextPosition" x="846" y="14664"><tspan fill="rgb(89,89,89)" stroke="none">0</tspan></tspan></tspan></text>
 <text class="TextShape"><tspan class="TextParagraph" font-family="Calibri, sans-serif" font-size="634px" font-weight="400"><tspan class="TextPosition" x="846" y="12674"/><tspan class="TextPosition" x="846" y="12674"><tspan fill="rgb(89,89,89)" stroke="none">5</tspan></tspan></tspan></text>
 <text class="TextShape"><tspan class="TextParagraph" font-family="Calibri, sans-serif" font-size="634px" font-weight="400"><tspan class="TextPosition" x="529" y="10684"/><tspan class="TextPosition" x="529" y="10684"><tspan fill="rgb(89,89,89)" stroke="none">10</tspan></tspan></tspan></text>
 <text class="TextShape"><tspan class="TextParagraph" font-family="Calibri, sans-serif" font-size="634px" font-weight="400"><tspan class="TextPosition" x="529" y="8695"/><tspan class="TextPosition" x="529" y="8695"><tspan fill="rgb(89,89,89)" stroke="none">15</tspan></tspan></tspan></text>
 <text class="TextShape"><tspan class="TextParagraph" font-family="Calibri, sans-serif" font-size="634px" font-weight="400"><tspan class="TextPosition" x="529" y="6705"/><tspan class="TextPosition" x="529" y="6705"><tspan fill="rgb(89,89,89)" stroke="none">20</tspan></tspan></tspan></text>
 <text class="TextShape"><tspan class="TextParagraph" font-family="Calibri, sans-serif" font-size="634px" font-weight="400"><tspan class="TextPosition" x="529" y="4715"/><tspan class="TextPosition" x="529" y="4715"><tspan fill="rgb(89,89,89)" stroke="none">25</tspan></tspan></tspan></text>
 <text class="TextShape"><tspan class="TextParagraph" font-family="Calibri, sans-serif" font-size="634px" font-weight="400"><tspan class="TextPosition" x="529" y="2725"/><tspan class="TextPosition" x="529" y="2725"><tspan fill="rgb(89,89,89)" stroke="none">30</tspan></tspan></tspan></text>
 <text class="TextShape"><tspan class="TextParagraph" font-family="Calibri, sans-serif" font-size="705px" font-weight="400"><tspan class="TextPosition" x="9316" y="1384"/><tspan class="TextPosition" x="9316" y="1384"><tspan fill="rgb(89,89,89)" stroke="none">Growth patient database</tspan></tspan></tspan></text>
 <path fill="none" stroke="rgb(0,69,134)" stroke-width="80" stroke-linejoin="round" d="M 7254,16153 L 8054,16153"/>
 <path fill="none" stroke="rgb(255,66,14)" stroke-width="80" stroke-linejoin="round" d="M 13688,16153 L 14487,16153"/>
 <text class="TextShape"><tspan class="TextParagraph" font-family="Calibri, sans-serif" font-size="634px" font-weight="400"><tspan class="TextPosition" x="8192" y="16378"/><tspan class="TextPosition" x="8192" y="16378"><tspan fill="rgb(89,89,89)" stroke="none">Number of patients</tspan></tspan></tspan></text>
 <text class="TextShape"><tspan class="TextParagraph" font-family="Calibri, sans-serif" font-size="634px" font-weight="400"><tspan class="TextPosition" x="14626" y="16378"/><tspan class="TextPosition" x="14626" y="16378"><tspan fill="rgb(89,89,89)" stroke="none">Viable patients</tspan></tspan></tspan></text>
</svg>